<svg xmlns="http://www.w3.org/2000/svg" width="57.001" height="57.001" viewBox="0 0 57.001 57.001">
  <g id="play-btn" transform="translate(0 0)">
    <path id="Subtraction_1" data-name="Subtraction 1" d="M-994.5-489a28.321,28.321,0,0,1-11.094-2.24,28.405,28.405,0,0,1-9.059-6.108,28.405,28.405,0,0,1-6.108-9.059A28.321,28.321,0,0,1-1023-517.5a28.321,28.321,0,0,1,2.24-11.094,28.4,28.4,0,0,1,6.108-9.059,28.4,28.4,0,0,1,9.059-6.108A28.321,28.321,0,0,1-994.5-546a28.321,28.321,0,0,1,11.094,2.24,28.407,28.407,0,0,1,9.059,6.108,28.407,28.407,0,0,1,6.108,9.059A28.321,28.321,0,0,1-966-517.5a28.321,28.321,0,0,1-2.24,11.094,28.406,28.406,0,0,1-6.108,9.059,28.406,28.406,0,0,1-9.059,6.108A28.321,28.321,0,0,1-994.5-489Zm-7.727-44-.078,0a1.818,1.818,0,0,0-1.331.731c-.365.49-.365,1.368-.365,3.119v22.294c0,1.751,0,2.63.365,3.119a1.821,1.821,0,0,0,1.331.731l.076,0c.593,0,1.306-.462,2.727-1.382l17.231-11.147c1.27-.821,1.907-1.234,2.127-1.757a1.861,1.861,0,0,0,0-1.43c-.22-.523-.857-.935-2.126-1.757L-999.5-531.619l0,0h0C-1000.924-532.539-1001.636-533-1002.227-533Z" transform="translate(1023 546)" fill="#fff"/>
  </g>
</svg>
